<?xml version="1.0" standalone="no"?><!DOCTYPE svg PUBLIC "-//W3C//DTD SVG 1.1//EN" "http://www.w3.org/Graphics/SVG/1.1/DTD/svg11.dtd"><svg t="1719656114433" class="icon" viewBox="0 0 1024 1024" version="1.1" xmlns="http://www.w3.org/2000/svg" p-id="1529" xmlns:xlink="http://www.w3.org/1999/xlink" width="200" height="200"><path d="M964.84 284.852c18.672-10.752 30.412-2.68 25.5 17.612-31.784 128.56-96.596 267.96-169.128 413.56-11.64 23.06-39.16 44.64-60.9 47.248a2114.948 2114.948 0 0 1-496.608 0c-21.74-2.6-49.264-24.188-60.904-47.244-72.536-145.6-137.348-285-169.128-413.56-4.904-20.296 6.64-28.16 25.116-17.14 61.948 36.972 128.856 79.32 197.228 124.112 20.6 13.492 46.896 7.3 58.652-14.26 60.192-109.9 126.364-223.68 180.776-335.956 10.68-22.008 26.688-21.748 36.928 0.568 51.308 111.964 113.396 225.144 169.756 334.844 11.188 21.88 37.164 28.54 57.944 15.288 70.92-45.228 140.4-87.976 204.764-125.072z" fill="#FFC829" p-id="1530"></path><path d="M886.68 847.188c4.648 25.94-14.764 51.12-43.448 55.412a2191.904 2191.904 0 0 1-650.32 0c-28.688-4.292-48.1-29.472-43.452-55.412 6.38-36.576 12.764-73.16 19.152-109.736 4.644-25.96 29.232-43.292 54.992-39.44a1984.94 1984.94 0 0 0 588.932 0c25.76-3.852 50.34 13.48 54.992 39.44 6.38 36.58 12.772 73.16 19.152 109.736z" fill="#FFA647" p-id="1531"></path></svg>